HIERARCHY
ROOT hip
{
  OFFSET 5.51535 103.731 -2.80141
  CHANNELS 6 Xposition Yposition Zposition Zrotation Xrotation Yrotation
  JOINT abdomen
  {
    OFFSET 0 -1.186 -1.5018
    CHANNELS 6 Xposition Yposition Zposition Zrotation Xrotation Yrotation
    JOINT abdomen2
    {
      OFFSET 0 9.964 0.2134
      CHANNELS 6 Xposition Yposition Zposition Zrotation Xrotation Yrotation
      JOINT chest
      {
        OFFSET 0 13.134 -3.2573
        CHANNELS 6 Xposition Yposition Zposition Zrotation Xrotation Yrotation
        JOINT neck
        {
          OFFSET 0 20.686 -1.6905
          CHANNELS 6 Xposition Yposition Zposition Zrotation Xrotation Yrotation
          JOINT head
          {
            OFFSET 0 7.23801 -0.1237
            CHANNELS 6 Xposition Yposition Zposition Zrotation Xrotation Yrotation
            End Site
            {
              OFFSET 0 0 0
            }
          }
        }
        JOINT lCollar
        {
          OFFSET 1.7069 20.075 5.0056
          CHANNELS 6 Xposition Yposition Zposition Zrotation Xrotation Yrotation
          JOINT lShldr
          {
            OFFSET 13.6458 -0.0470195 -4.849
            CHANNELS 6 Xposition Yposition Zposition Zrotation Xrotation Yrotation
            JOINT lForeArm
            {
              OFFSET 28.3255 -0.97589 2.2888
              CHANNELS 6 Xposition Yposition Zposition Zrotation Xrotation Yrotation
              JOINT lHand
              {
                OFFSET 22.1583 -0.529998 10.8316
                CHANNELS 6 Xposition Yposition Zposition Zrotation Xrotation Yrotation
                JOINT lThumb1
                {
                  OFFSET 0.786 0.111997 2.5817
                  CHANNELS 6 Xposition Yposition Zposition Zrotation Xrotation Yrotation
                  JOINT lThumb2
                  {
                    OFFSET 0.360097 -0.877999 4.2331
                    CHANNELS 6 Xposition Yposition Zposition Zrotation Xrotation Yrotation
                    JOINT lThumb2_End
                    {
                      OFFSET 1.8127 -1.21601 2.2227
                      CHANNELS 6 Xposition Yposition Zposition Zrotation Xrotation Yrotation
                      End Site
                      {
                        OFFSET 0.0180981 -0.012195 0.0222007
                      }
                    }
                  }
                }
                JOINT lCarpal1
                {
                  OFFSET 0.9571 1.114 1.7695
                  CHANNELS 6 Xposition Yposition Zposition Zrotation Xrotation Yrotation
                  JOINT lIndex1
                  {
                    OFFSET 4.12461 0.486992 4.1451
                    CHANNELS 6 Xposition Yposition Zposition Zrotation Xrotation Yrotation
                    JOINT lIndex2
                    {
                      OFFSET 3.4052 -1.45401 2.7682
                      CHANNELS 6 Xposition Yposition Zposition Zrotation Xrotation Yrotation
                      JOINT lIndex2_End
                      {
                        OFFSET 1.45309 -1.79499 1.2713
                        CHANNELS 6 Xposition Yposition Zposition Zrotation Xrotation Yrotation
                        End Site
                        {
                          OFFSET 0.0144979 -0.0179083 0.0126995
                        }
                      }
                    }
                  }
                  JOINT lMid1
                  {
                    OFFSET 5.6954 0.209987 2.1184
                    CHANNELS 6 Xposition Yposition Zposition Zrotation Xrotation Yrotation
                    JOINT lMid2
                    {
                      OFFSET 3.9766 -1.53999 2.3863
                      CHANNELS 6 Xposition Yposition Zposition Zrotation Xrotation Yrotation
                      JOINT lMid2_End
                      {
                        OFFSET 1.4042 -1.926 1.125
                        CHANNELS 6 Xposition Yposition Zposition Zrotation Xrotation Yrotation
                        End Site
                        {
                          OFFSET 0.013999 -0.0193044 0.011301
                        }
                      }
                    }
                  }
                }
                JOINT lCarpal2
                {
                  OFFSET 2.0956 0.66 -0.3894
                  CHANNELS 6 Xposition Yposition Zposition Zrotation Xrotation Yrotation
                  JOINT lRing1
                  {
                    OFFSET 5.0395 -0.090013 2.4971
                    CHANNELS 6 Xposition Yposition Zposition Zrotation Xrotation Yrotation
                    JOINT lRing2
                    {
                      OFFSET 3.7921 -1.55199 1.4806
                      CHANNELS 6 Xposition Yposition Zposition Zrotation Xrotation Yrotation
                      JOINT lRing2_End
                      {
                        OFFSET 1.4655 -1.808 0.9609
                        CHANNELS 6 Xposition Yposition Zposition Zrotation Xrotation Yrotation
                        End Site
                        {
                          OFFSET 0.0147015 -0.0181014 0.00959957
                        }
                      }
                    }
                  }
                  JOINT lPinky1
                  {
                    OFFSET 4.9141 -1.269 0.3591
                    CHANNELS 6 Xposition Yposition Zposition Zrotation Xrotation Yrotation
                    JOINT lPinky2
                    {
                      OFFSET 3.1477 -1.685 0.8462
                      CHANNELS 6 Xposition Yposition Zposition Zrotation Xrotation Yrotation
                      JOINT lPinky2_End
                      {
                        OFFSET 0.805498 -1.58501 0.795499
                        CHANNELS 6 Xposition Yposition Zposition Zrotation Xrotation Yrotation
                        End Site
                        {
                          OFFSET 0.00809703 -0.0157944 0.00799848
                        }
                      }
                    }
                  }
                }
              }
            }
          }
        }
        JOINT rCollar
        {
          OFFSET -1.7069 20.075 5.0056
          CHANNELS 6 Xposition Yposition Zposition Zrotation Xrotation Yrotation
          JOINT rShldr
          {
            OFFSET -13.6458 -0.0470107 -4.849
            CHANNELS 6 Xposition Yposition Zposition Zrotation Xrotation Yrotation
            JOINT rForeArm
            {
              OFFSET -28.3255 -0.975895 2.2888
              CHANNELS 6 Xposition Yposition Zposition Zrotation Xrotation Yrotation
              JOINT rHand
              {
                OFFSET -22.1583 -0.530007 10.8316
                CHANNELS 6 Xposition Yposition Zposition Zrotation Xrotation Yrotation
                JOINT rThumb1
                {
                  OFFSET -0.785997 0.112005 2.5817
                  CHANNELS 6 Xposition Yposition Zposition Zrotation Xrotation Yrotation
                  JOINT rThumb2
                  {
                    OFFSET -0.360106 -0.877994 4.2331
                    CHANNELS 6 Xposition Yposition Zposition Zrotation Xrotation Yrotation
                    JOINT rThumb2_End
                    {
                      OFFSET -1.8127 -1.216 2.2227
                      CHANNELS 6 Xposition Yposition Zposition Zrotation Xrotation Yrotation
                      End Site
                      {
                        OFFSET -0.0180972 -0.0121973 0.0222005
                      }
                    }
                  }
                }
                JOINT rCarpal1
                {
                  OFFSET -0.9571 1.114 1.7695
                  CHANNELS 6 Xposition Yposition Zposition Zrotation Xrotation Yrotation
                  JOINT rIndex1
                  {
                    OFFSET -4.1246 0.487011 4.1451
                    CHANNELS 6 Xposition Yposition Zposition Zrotation Xrotation Yrotation
                    JOINT rIndex2
                    {
                      OFFSET -3.4052 -1.45401 2.7682
                      CHANNELS 6 Xposition Yposition Zposition Zrotation Xrotation Yrotation
                      JOINT rIndex2_End
                      {
                        OFFSET -1.4531 -1.795 1.2713
                        CHANNELS 6 Xposition Yposition Zposition Zrotation Xrotation Yrotation
                        End Site
                        {
                          OFFSET -0.0145077 -0.0180048 0.0127017
                        }
                      }
                    }
                  }
                  JOINT rMid1
                  {
                    OFFSET -5.6954 0.210002 2.1184
                    CHANNELS 6 Xposition Yposition Zposition Zrotation Xrotation Yrotation
                    JOINT rMid2
                    {
                      OFFSET -3.9766 -1.54 2.3863
                      CHANNELS 6 Xposition Yposition Zposition Zrotation Xrotation Yrotation
                      JOINT rMid2_End
                      {
                        OFFSET -1.4042 -1.926 1.125
                        CHANNELS 6 Xposition Yposition Zposition Zrotation Xrotation Yrotation
                        End Site
                        {
                          OFFSET -0.0139948 -0.0192916 0.0112994
                        }
                      }
                    }
                  }
                }
                JOINT rCarpal2
                {
                  OFFSET -2.0956 0.66 -0.3894
                  CHANNELS 6 Xposition Yposition Zposition Zrotation Xrotation Yrotation
                  JOINT rRing1
                  {
                    OFFSET -5.03951 -0.0899879 2.4971
                    CHANNELS 6 Xposition Yposition Zposition Zrotation Xrotation Yrotation
                    JOINT rRing2
                    {
                      OFFSET -3.7921 -1.55201 1.4806
                      CHANNELS 6 Xposition Yposition Zposition Zrotation Xrotation Yrotation
                      JOINT rRing2_End
                      {
                        OFFSET -1.4655 -1.808 0.960901
                        CHANNELS 6 Xposition Yposition Zposition Zrotation Xrotation Yrotation
                        End Site
                        {
                          OFFSET -0.0146934 -0.0180999 0.00959832
                        }
                      }
                    }
                  }
                  JOINT rPinky1
                  {
                    OFFSET -4.91411 -1.26899 0.359202
                    CHANNELS 6 Xposition Yposition Zposition Zrotation Xrotation Yrotation
                    JOINT rPinky2
                    {
                      OFFSET -3.14769 -1.68501 0.846199
                      CHANNELS 6 Xposition Yposition Zposition Zrotation Xrotation Yrotation
                      JOINT rPinky2_End
                      {
                        OFFSET -0.805498 -1.585 0.7955
                        CHANNELS 6 Xposition Yposition Zposition Zrotation Xrotation Yrotation
                        End Site
                        {
                          OFFSET -0.00810035 -0.0158035 0.00800029
                        }
                      }
                    }
                  }
                }
              }
            }
          }
        }
      }
    }
  }
  JOINT lThigh
  {
    OFFSET 8.367 -8.2066 0.5982
    CHANNELS 6 Xposition Yposition Zposition Zrotation Xrotation Yrotation
    JOINT lShin
    {
      OFFSET 2.1923 -43.463 -0.4932
      CHANNELS 6 Xposition Yposition Zposition Zrotation Xrotation Yrotation
      JOINT lFoot
      {
        OFFSET 0.733301 -45.8593 -2.6451
        CHANNELS 6 Xposition Yposition Zposition Zrotation Xrotation Yrotation
        End Site
        {
          OFFSET 2.6618 -4.2699 12.3931
        }
      }
    }
  }
  JOINT rThigh
  {
    OFFSET -8.367 -8.2066 0.5982
    CHANNELS 6 Xposition Yposition Zposition Zrotation Xrotation Yrotation
    JOINT rShin
    {
      OFFSET -2.1923 -43.463 -0.4931
      CHANNELS 6 Xposition Yposition Zposition Zrotation Xrotation Yrotation
      JOINT rFoot
      {
        OFFSET -0.733299 -45.8593 -2.6451
        CHANNELS 6 Xposition Yposition Zposition Zrotation Xrotation Yrotation
        End Site
        {
          OFFSET -2.6618 -4.2699 12.3931
        }
      }
    }
  }
}
MOTION
Frames:	4
Frame Time:	0.0333333
-22.8407 20.6986 53.0805 24.6681 -43.3752 112.981 9.47458e-007 -1.186 -1.5018 4.24108 -1.0046 -0.432588 -1.81532e-006 9.964 0.2134 8.47641 -2.03845 -0.789872 -8.17835e-007 13.134 -3.2573 8.47641 -2.03845 -0.789867 -2.17953e-006 20.686 -1.6905 -1.96082 17.7025 3.53344 -9.12314e-007 7.23803 -0.123697 22.24 -3.033 11.8085 1.7069 20.075 5.0056 -2.66941 -1.71332 -17.7418 13.6458 -0.0470109 -4.849 -54.8844 -1.11615 -14.9709 28.3255 -0.975902 2.2888 -52.0186 34.1246 -108.748 22.1583 -0.529989 10.8316 -3.32855 -11.4924 -72.4326 0.786004 0.111996 2.5817 -9.24484 10.5109 -5.24694 0.360098 -0.877998 4.2331 -7.50767 0.00154486 -13.7174 1.8127 -1.21601 2.2227 -7.27901 -0.0301471 -13.3217 0.9571 1.114 1.7695 -8.82781e-032 1.59028e-015 3.18055e-015 4.1246 0.486993 4.1451 11.2706 -2.77163 -7.33229 3.4052 -1.454 2.7682 8.94404 -4.29347 -3.37997 1.4531 -1.79499 1.2713 3.98938 -1.83529 -1.57835 5.6954 0.209988 2.1184 11.7765 -2.74488 -3.93487 3.9766 -1.53999 2.3863 5.02276 -2.58515 -1.99429 1.4042 -1.926 1.125 15.5815 -8.66471 -5.49908 2.0956 0.66 -0.3894 -8.82781e-032 1.59028e-015 3.18055e-015 5.0395 -0.0900118 2.4971 13.7388 -5.89896 -1.60964 3.7921 -1.55199 1.4806 5.09641 -2.85181 -2.32227 1.4655 -1.808 0.960899 15.2538 -9.27014 -6.28109 4.9141 -1.269 0.359102 9.31415 -4.78636 6.81758 3.1477 -1.685 0.846201 12.8948 -8.19347 -5.30754 0.805499 -1.58501 0.795499 14.8848 -9.58895 -5.9795 -1.7069 20.075 5.0056 -21.3273 -0.0302142 -5.88012 -13.6458 -0.047011 -4.849 17.7644 -38.4637 53.0122 -28.3255 -0.975877 2.2888 8.27502 -13.5335 48.344 -22.1583 -0.530005 10.8316 -3.20506 -10.7627 12.3998 -0.785999 0.112002 2.5817 -1.51545 18.2989 14.3027 -0.360106 -0.877993 4.2331 4.24525 -2.96126 12.0211 -1.8127 -1.216 2.2227 1.92636 -1.50934 5.64746 -0.9571 1.114 1.7695 1.59028e-015 -6.36111e-015 3.18055e-015 -4.12461 0.487013 4.1451 -4.45152 0.809749 1.31632 -3.4052 -1.45401 2.7682 6.43046 2.08542 -1.01813 -1.4531 -1.795 1.2713 11.1035 3.51389 -1.8972 -5.6954 0.210002 2.1184 -5.4225 -8.98508e-005 0.557199 -3.9766 -1.54 2.3863 11.5432 4.12998 -1.99899 -1.4042 -1.926 1.125 -7.37629 -2.84199 0.834657 -2.0956 0.66 -0.3894 1.59028e-015 -6.36111e-015 3.18055e-015 -5.03951 -0.0899879 2.4971 -4.98032 -2.05919 -2.73541 -3.7921 -1.552 1.4806 3.39943 1.38912 -0.653529 -1.4655 -1.808 0.960901 -5.4854 -2.32871 0.882241 -4.91411 -1.26899 0.359202 -5.94506 -3.87391 -9.44964 -3.1477 -1.68501 0.846199 -2.77586 -1.2516 0.436464 -0.8055 -1.58499 0.795499 -7.18161 -3.28376 1.00506 8.367 -8.20659 0.598199 -107.168 -86.4771 -75.0149 2.19233 -43.463 -0.493205 -1.80184 78.8345 2.63922 0.733302 -45.8593 -2.64509 1.59888 9.15163 -8.90246 -8.36699 -8.20659 0.598202 -31.7281 8.78408 9.77987 -2.19229 -43.463 -0.493076 10.7732 38.4145 -6.17822 -0.733285 -45.8593 -2.64511 9.50747 11.0181 -6.13322 
-23.247 20.5987 53.3643 23.548 -43.6632 109.182 9.26258e-007 -1.186 -1.5018 4.03634 -0.962629 -0.58205 -8.17511e-007 9.964 0.2134 8.0645 -1.96384 -1.0951 -2.22408e-006 13.134 -3.2573 8.0645 -1.96383 -1.09508 -2.52246e-006 20.686 -1.6905 -1.78635 18.6489 5.10299 -7.72836e-006 7.23805 -0.123702 22.3713 -2.95341 12.66 1.7069 20.075 5.0056 -2.33135 -1.72584 -17.9047 13.6458 -0.047015 -4.849 -53.3365 -2.90149 -18.1513 28.3255 -0.9759 2.28881 -51.6283 32.8738 -112.113 22.1583 -0.529996 10.8316 0.688696 -6.58869 -73.5289 0.786003 0.111997 2.5817 -9.48881 11.5212 -6.45826 0.360097 -0.877999 4.2331 -7.86255 0.0463685 -14.3684 1.8127 -1.21601 2.2227 -7.89268 0.0506266 -14.4242 0.9571 1.114 1.7695 -6.36111e-015 4.77083e-015 3.18055e-015 4.1246 0.486992 4.1451 12.7544 -3.61045 -8.49699 3.4052 -1.454 2.7682 10.0412 -4.86233 -3.75326 1.4531 -1.79499 1.2713 4.92429 -2.28433 -1.93225 5.6954 0.209986 2.1184 12.9967 -3.47023 -4.40173 3.9766 -1.53999 2.3863 6.10863 -3.17211 -2.39961 1.4042 -1.926 1.125 17.0573 -9.57272 -5.90544 2.0956 0.66 -0.3894 -6.36111e-015 4.77083e-015 3.18055e-015 5.0395 -0.0900129 2.4971 15.0612 -6.60607 -1.76633 3.7921 -1.55199 1.4806 6.14272 -3.46976 -2.7734 1.4655 -1.808 0.960901 16.6657 -10.229 -6.75038 4.9141 -1.269 0.359101 10.5997 -5.44329 7.12019 3.1477 -1.685 0.846202 14.2668 -9.1523 -5.77582 0.805498 -1.58501 0.7955 16.3011 -10.5886 -6.42723 -1.7069 20.075 5.0056 -21.2266 -0.0464615 -4.9466 -13.6458 -0.0470091 -4.84901 16.9782 -39.0535 51.9335 -28.3255 -0.975888 2.2888 9.21696 -15.1002 50.4254 -22.1583 -0.530006 10.8316 -6.88505 -8.95013 10.8523 -0.786002 0.112006 2.5817 -0.658733 17.6408 13.7709 -0.360107 -0.877991 4.2331 4.28014 -2.98043 12.1143 -1.8127 -1.216 2.2227 2.18373 -1.68874 6.37478 -0.9571 1.114 1.7695 -4.77083e-015 4.77083e-015 3.18055e-015 -4.12461 0.48701 4.1451 -5.05675 0.607704 1.74567 -3.4052 -1.45401 2.7682 5.17024 1.68703 -0.800767 -1.4531 -1.795 1.2713 9.94323 3.16679 -1.66856 -5.6954 0.210002 2.1184 -5.85676 -0.0512408 0.634419 -3.9766 -1.54 2.3863 10.203 3.67555 -1.72615 -1.4042 -1.926 1.125 -8.12776 -3.13759 0.899179 -2.0956 0.66 -0.3894 -4.77083e-015 4.77083e-015 3.18055e-015 -5.03951 -0.0899888 2.4971 -5.64354 -2.13714 -2.69221 -3.7921 -1.55201 1.4806 2.80902 1.15114 -0.534409 -1.4655 -1.808 0.9609 -6.42375 -2.73629 1.01105 -4.91411 -1.26899 0.359201 -5.92918 -3.71222 -9.55583 -3.1477 -1.68501 0.846199 -3.72269 -1.68402 0.571651 -0.805501 -1.58499 0.795498 -7.91591 -3.62701 1.08481 8.36699 -8.20659 0.598199 -109.072 -86.9094 -77.4524 2.1923 -43.463 -0.493202 -1.86678 79.0748 2.683 0.733302 -45.8593 -2.6451 0.845172 9.4661 -9.31583 -8.367 -8.20659 0.598202 -32.7662 6.18344 10.1115 -2.19229 -43.463 -0.493103 10.1607 37.2291 -5.58466 -0.733292 -45.8593 -2.64509 9.78329 11.5721 -5.87344 
-23.6427 20.4888 53.6565 22.4196 -43.6712 105.401 -6.26189e-007 -1.186 -1.5018 3.77995 -0.916326 -0.71687 6.16083e-007 9.964 0.2134 7.54964 -1.87784 -1.37206 4.98394e-007 13.134 -3.2573 7.54965 -1.87784 -1.37205 3.43162e-007 20.686 -1.6905 -1.57174 19.4761 6.67635 -2.59793e-006 7.23801 -0.123702 22.134 -2.72196 13.2244 1.7069 20.075 5.0056 -2.0191 -1.73267 -18.0008 13.6458 -0.0470166 -4.849 -51.7589 -5.17218 -21.1048 28.3255 -0.975904 2.28881 -50.7436 30.5494 -115.416 22.1583 -0.529985 10.8316 4.67557 -3.01397 -74.0641 0.786002 0.111997 2.5817 -9.43506 12.4689 -7.40072 0.360097 -0.878 4.2331 -8.09086 0.0773574 -14.7875 1.8127 -1.21601 2.2227 -8.28006 0.104602 -15.1356 0.9571 1.114 1.7695 -9.54166e-015 0 -6.36111e-015 4.1246 0.486992 4.1451 13.7116 -4.15899 -9.24008 3.4052 -1.45401 2.7682 10.7497 -5.2342 -3.98916 1.4531 -1.79499 1.2713 5.52788 -2.57789 -2.15737 5.6954 0.209988 2.1184 13.7774 -3.94797 -4.7081 3.9766 -1.53999 2.3863 6.80938 -3.55595 -2.65603 1.4042 -1.926 1.125 18.0109 -10.1656 -6.15627 2.0956 0.66 -0.3894 -9.54166e-015 0 -6.36111e-015 5.0395 -0.0900123 2.4971 15.9115 -7.08389 -1.84834 3.7921 -1.55199 1.4806 6.81752 -3.87393 -3.05942 1.4655 -1.808 0.960898 17.5774 -10.8554 -7.04195 4.9141 -1.269 0.359103 11.5205 -5.98821 7.3217 3.1477 -1.685 0.8462 15.1524 -9.7785 -6.06705 0.805498 -1.58501 0.795501 17.1828 -11.2347 -6.70072 -1.7069 20.075 5.0056 -21.1785 -0.063456 -3.98424 -13.6458 -0.0470153 -4.849 16.2097 -39.9319 51.1509 -28.3255 -0.975882 2.2888 10.2868 -16.9024 52.3564 -22.1583 -0.530006 10.8316 -11.1211 -6.05086 8.81725 -0.786 0.112006 2.5817 0.156403 17.0073 13.2766 -0.360105 -0.877994 4.2331 4.3122 -2.99802 12.1998 -1.81269 -1.216 2.2227 2.43539 -1.85954 7.08072 -0.9571 1.114 1.7695 1.59028e-015 0 3.18055e-015 -4.12461 0.487015 4.1451 -5.64363 0.411083 2.15974 -3.4052 -1.45401 2.7682 3.95022 1.29635 -0.598454 -1.4531 -1.795 1.2713 8.85453 2.83651 -1.46023 -5.6954 0.210003 2.1184 -6.27219 -0.100393 0.706793 -3.9766 -1.54 2.3863 8.90639 3.22906 -1.47203 -1.4042 -1.926 1.125 -8.87912 -3.434 0.959821 -2.0956 0.66 -0.3894 1.59028e-015 0 3.18055e-015 -5.03951 -0.089986 2.4971 -6.28629 -2.21357 -2.65333 -3.7921 -1.55201 1.4806 2.23722 0.919295 -0.42128 -1.4655 -1.808 0.960901 -7.33285 -3.13338 1.12959 -4.91411 -1.26899 0.359203 -5.91298 -3.55057 -9.66206 -3.1477 -1.68501 0.846199 -4.61169 -2.09233 0.692193 -0.805496 -1.585 0.795501 -8.65 -3.97124 1.16016 8.36701 -8.2066 0.598204 -107.331 -87.1834 -76.4068 2.19233 -43.463 -0.493202 -1.89465 79.0718 2.65201 0.733308 -45.8593 -2.6451 0.771971 9.24766 -9.40051 -8.367 -8.2066 0.598204 -33.8831 3.73807 9.91044 -2.1923 -43.463 -0.493088 8.99354 35.3331 -4.63863 -0.733288 -45.8593 -2.6451 9.60363 12.0057 -5.88185 
-23.9761 20.3716 53.9686 21.4106 -43.5515 101.798 -1.9385e-006 -1.186 -1.5018 3.51571 -0.936758 -0.782023 -2.81426e-006 9.964 0.2134 7.01981 -1.91964 -1.50542 -2.46256e-008 13.134 -3.2573 7.0198 -1.91964 -1.50543 3.10299e-008 20.686 -1.6905 -1.34814 20.69 7.69123 -6.57927e-006 7.23804 -0.123702 21.51 -2.53677 13.5264 1.7069 20.075 5.0056 -1.537 -1.72963 -17.9927 13.6458 -0.0470139 -4.849 -50.2969 -7.36299 -23.9612 28.3255 -0.975896 2.2888 -50.487 27.6851 -117.837 22.1583 -0.529984 10.8316 8.3709 0.308154 -74.0974 0.786003 0.111996 2.5817 -9.06322 13.331 -8.01512 0.360097 -0.878 4.2331 -8.17158 0.0887047 -14.9357 1.8127 -1.21601 2.2227 -8.41756 0.124953 -15.3884 0.9571 1.114 1.7695 -3.18055e-015 0 -3.18055e-015 4.1246 0.486993 4.1451 14.0512 -4.35501 -9.50214 3.4052 -1.45401 2.7682 11.0012 -5.36704 -4.07187 1.4531 -1.79499 1.2713 5.74214 -2.6828 -2.23664 5.6954 0.209988 2.1184 14.0427 -4.12516 -4.83781 3.9766 -1.53999 2.3863 7.05806 -3.69308 -2.74607 1.4042 -1.926 1.125 18.3496 -10.3773 -6.24307 2.0956 0.66 -0.3894 -3.18055e-015 0 -3.18055e-015 5.0395 -0.0900122 2.4971 16.206 -7.28194 -1.85922 3.7921 -1.55199 1.4806 7.05691 -4.01837 -3.15993 1.4655 -1.808 0.960901 17.901 -11.0791 -7.14326 4.9141 -1.269 0.359101 12.0061 -6.39471 7.39311 3.1477 -1.685 0.846202 15.4667 -10.0021 -6.16829 0.805498 -1.58501 0.795499 17.503 -11.4666 -6.79637 -1.7069 20.075 5.0056 -21.2942 -0.0777392 -3.25872 -13.6458 -0.0470116 -4.849 14.8572 -40.8559 49.9647 -28.3255 -0.975894 2.2888 10.5148 -18.0753 53.3121 -22.1583 -0.530005 10.8316 -13.9003 -5.29904 7.60352 -0.786003 0.112006 2.5817 0.937896 16.3914 12.8117 -0.360104 -0.877993 4.2331 4.34427 -3.0155 12.2853 -1.8127 -1.216 2.2227 2.68029 -2.02142 7.7628 -0.9571 1.114 1.7695 1.76556e-031 3.18055e-015 -3.18055e-015 -4.12461 0.487012 4.1451 -6.21039 0.220808 2.55745 -3.4052 -1.45401 2.7682 2.7742 0.91528 -0.411133 -1.4531 -1.795 1.2713 7.76734 2.50233 -1.25829 -5.6954 0.210004 2.1184 -6.67318 -0.148137 0.775506 -3.9766 -1.54 2.3863 7.65743 2.79281 -1.23653 -1.4042 -1.926 1.125 -9.59295 -3.71636 1.01384 -2.0956 0.66 -0.3894 1.76556e-031 3.18055e-015 -3.18055e-015 -5.03951 -0.0899874 2.4971 -6.90647 -2.28807 -2.61857 -3.7921 -1.55201 1.4806 1.68577 0.694457 -0.314322 -1.4655 -1.808 0.9609 -8.20977 -3.51833 1.23801 -4.91411 -1.26899 0.359202 -5.8965 -3.38895 -9.76833 -3.1477 -1.68501 0.846199 -5.50007 -2.50247 0.806395 -0.805501 -1.585 0.795499 -9.33359 -4.29269 1.22638 8.367 -8.2066 0.598197 -103.614 -87.3148 -73.5565 2.19232 -43.463 -0.493205 -1.92855 79.175 2.62924 0.733316 -45.8593 -2.6451 1.14309 9.0399 -9.63746 -8.367 -8.20659 0.598201 -34.8129 1.61596 9.42736 -2.19229 -43.463 -0.493102 7.38071 32.7892 -3.44134 -0.733302 -45.8593 -2.64511 9.38792 12.4621 -5.94437 
